<svg width="40" height="32" xmlns="http://www.w3.org/2000/svg" fill="none">
 <defs>
  <linearGradient y2="0.5" x2="-0.03914" y1="0.5" x1="1.03979" id="paint0_linear_3_24431">
   <stop stop-color="#00FB8C"/>
   <stop stop-color="#64CCEB" offset="0.09713"/>
   <stop stop-color="#64CCEB" offset="0.27668"/>
   <stop stop-color="#64CCEB" offset="0.31961"/>
   <stop stop-color="#0F39D9" offset="0.69755"/>
   <stop stop-color="#0F39D9" offset="0.80615"/>
   <stop stop-color="#64CCEB" offset="1"/>
  </linearGradient>
  <linearGradient y2="0.07743" x2="0.24315" y1="0.78759" x1="0.77934" id="paint1_linear_3_24431">
   <stop stop-color="#00FB8C"/>
   <stop stop-color="#64CCEB" offset="0.09584"/>
   <stop stop-color="#64CCEB" offset="0.47701"/>
   <stop stop-color="#64CCEB" offset="0.6467"/>
   <stop stop-color="#0F39D9" offset="1"/>
  </linearGradient>
 </defs>
 <g>
  <title>Layer 1</title>
  <path id="svg_6" fill="url(#paint0_linear_3_24431)" d="m6.44158,0.16878c-1.68536,0.33909 -3.19273,1.31896 -4.155,2.61821c-0.97339,1.2937 -1.49624,2.80469 -1.7738,4.32528c-0.27311,1.52616 -0.25085,3.07253 -0.16742,4.59363c0.17744,3.0675 0.86215,6.0945 2.02967,8.975c0.59015,1.4402 1.29099,2.8355 2.12533,4.1742c0.84546,1.3346 1.83554,2.5874 2.92574,3.7603c1.10689,1.1517 2.29165,2.3039 3.8825,3.0164c0.4004,0.182 0.8399,0.2931 1.296,0.3543c0.4783,0.0455 0.94,-0.0253 1.3627,-0.142c0.851,-0.237 1.6019,-0.6413 2.3083,-1.0815c0.979,-0.616 1.8801,-1.3285 2.7255,-2.0714c0.3616,-0.329 0.7231,-0.6575 1.0735,-0.9905c0.0612,-0.0556 0.1169,-0.1167 0.1836,-0.1769c1.0902,-1.0561 2.1081,-2.1785 3.0871,-3.3156c2.0635,-2.4206 3.9603,-4.9423 5.6734,-7.5701c1.7077,-2.6273 3.3318,-5.3107 4.55,-8.1816c0.6229,-1.42003 0.9622,-3.06747 0.5395,-4.63355c-0.2058,-0.77874 -0.623,-1.54131 -1.3238,-2.09264c-0.6953,-0.55033 -1.6576,-0.78834 -2.5531,-0.73781c-0.9066,0.04548 -1.7187,0.33909 -2.4974,0.64736c-0.7843,0.32847 -1.5352,0.72213 -2.2138,1.19261c-1.3739,0.92429 -2.542,2.0871 -3.5159,3.33986c-1.9518,2.5318 -3.2756,5.38197 -4.3107,8.28267c-1.0007,2.8956 -1.9741,5.8828 -1.8523,9.0003c0.0395,0.7732 0.1396,1.5413 0.4011,2.2948c0.089,0.2521 0.2058,0.5053 0.3393,0.7423c-0.7404,0.6625 -1.4963,1.274 -2.2305,1.7485c-0.5284,0.3341 -1.4907,0.7429 -1.4907,0.7429c0,0 -0.1001,-0.0197 -0.1613,-0.0551c-0.3393,-0.1061 -0.8621,-0.4351 -1.3627,-0.8237c-0.5012,-0.3846 -1.0124,-0.8495 -1.50685,-1.3548c-0.49059,-0.4948 -1.01289,-1.0613 -1.43562,-1.5914c-0.45054,-0.5261 -0.85658,-1.1017 -1.25707,-1.6777c-0.77315,-1.178 -1.47956,-2.4156 -2.07472,-3.7098c-1.18976,-2.5818 -1.95234,-5.3613 -2.2527,-8.1917c-0.10569,-0.702 -0.1385,-1.4297 -0.18356,-2.1225c-0.02781,-0.68222 -0.005,-1.36394 0.06119,-2.031c0.15018,-1.32907 0.51728,-2.61317 1.19032,-3.64863c0.66747,-1.03596 1.64142,-1.81926 2.94243,-2.19372c1.296,-0.39367 2.64206,-0.28803 3.95478,0.29817c1.3021,0.58671 2.4691,1.61257 3.4597,2.75971c1.0068,1.15169 1.8912,2.45094 2.5864,3.81487l0.0062,0.02022c0.0383,0.07126 0.1385,0.11168 0.2219,0.08641c0.0945,-0.03588 0.139,-0.12684 0.1057,-0.20719c-0.5507,-1.45591 -1.296,-2.84007 -2.2082,-4.13427c-0.9289,-1.27348 -2.0581,-2.48076 -3.5209,-3.30448c-0.7287,-0.41438 -1.55135,-0.71303 -2.40293,-0.83937c-0.33374,-0.05306 -0.67081,-0.07782 -1.00788,-0.07782c-0.52841,0 -1.05683,0.06063 -1.57301,0.16878zm11.49162,24.17132c-0.0284,-0.3133 -0.039,-0.6367 -0.0284,-0.9657c0.0284,-1.3184 0.3121,-2.6935 0.7181,-4.0579c0.2058,-0.6924 0.4394,-1.3645 0.712,-2.0619c0.2608,-0.6918 0.495,-1.3947 0.7954,-2.0719l0.4166,-1.0208l0.4678,-0.9955c0.2892,-0.6722 0.6619,-1.2988 0.9895,-1.9406c0.7236,-1.24819 1.5135,-2.44032 2.4034,-3.48639c0.7682,-0.90306 1.6337,-1.74597 2.636,-2.43779c0.7754,-0.53567 2.2966,-1.71011 3.3507,-1.24619c0.7337,0.32291 0.693,1.11682 0.5256,1.73132c-0.0539,0.19709 -0.1157,0.38507 -0.1657,0.54981c-0.5223,1.71465 -1.4217,3.30196 -2.3417,4.86454c-0.7515,1.278 -1.5525,2.5469 -2.3974,3.8002c-1.6965,2.4909 -3.4931,4.9469 -5.4232,7.2664c-0.8176,0.9758 -1.6575,1.9259 -2.5419,2.8148c-0.0501,-0.2173 -0.0946,-0.4745 -0.1168,-0.7424z"/>
  <path id="svg_7" fill="url(#paint1_linear_3_24431)" d="m39.3369,20.0711l-0.0068,0.0132c-0.968,1.2669 -2.2447,2.2922 -3.5862,3.2107c-1.3488,0.9048 -2.7759,1.7232 -4.239,2.4533c-1.4704,0.7242 -2.9904,1.3874 -4.5048,1.8701c-0.1858,0.061 -0.3722,0.1142 -0.5446,0.161c-0.1864,0.0479 -0.3373,0.0742 -0.5451,0.1142c-0.3875,0.0806 -0.7749,0.1343 -1.1618,0.1811c-0.7744,0.0937 -1.5347,0.1074 -2.2741,0.0542c-0.7671,-0.0605 -1.4992,-0.2284 -2.1232,-0.5037c-0.0642,0.0674 -0.1216,0.1274 -0.1858,0.1879c-0.352,0.349 -0.7175,0.6911 -1.083,1.0327c1.0323,0.4958 2.2088,0.7237 3.3492,0.7511c0.8605,0.02 1.7289,-0.0542 2.5675,-0.2021c0.8397,-0.1469 1.6929,-0.3279 2.4886,-0.6432c1.5853,-0.6095 3.0845,-1.3675 4.5409,-2.1922c1.4557,-0.8306 2.8541,-1.7359 4.1668,-2.7617c1.306,-1.0254 2.5388,-2.1649 3.4433,-3.546c0.0495,-0.0737 0.0281,-0.1674 -0.0507,-0.2216c-0.0299,-0.02 -0.0654,-0.03 -0.1008,-0.03c-0.0569,0 -0.1144,0.0252 -0.1504,0.071z"/>
 </g>
</svg>